# xmcd
#
# Track frame offsets:
#	150
#	27971
#	47243
#	69809
#	107792
#	136425
#	180435
#	206535
#	249827
#	273773
#	305478
#
# Disc length: 4471 seconds
#
# Revision: 0
# Processed by: cddbd v1.5.2PL0 Copyright (c) Steve Scherf et al.
# Submitted via: audiograbber 1.83.01
#
DISCID=8f11750b
DTITLE=The Stoney Curtis Band - Live
DYEAR=2012
DGENRE=Blues-Rock
TTITLE0=Last Train To Chicago
TTITLE1=Evil Woman
TTITLE2=American Lady
TTITLE3=When The Sweet Turns To Sour
TTITLE4=Headin' For The City
TTITLE5=Behind The Sun
TTITLE6=That's Right
TTITLE7=Blues Without You
TTITLE8=Eli's Blues
TTITLE9=The Letter
TTITLE10=Soul Fower
EXTD=
EXTT0=
EXTT1=
EXTT2=
EXTT3=
EXTT4=
EXTT5=
EXTT6=
EXTT7=
EXTT8=
EXTT9=
EXTT10=
PLAYORDER=
